<?xml version="1.0" encoding="UTF-8" standalone="no"?>
<!-- Created with Inkscape (http://www.inkscape.org/) -->

<svg
   xmlns:dc="http://purl.org/dc/elements/1.1/"
   xmlns:cc="http://creativecommons.org/ns#"
   xmlns:rdf="http://www.w3.org/1999/02/22-rdf-syntax-ns#"
   xmlns:svg="http://www.w3.org/2000/svg"
   xmlns="http://www.w3.org/2000/svg"
   xmlns:sodipodi="http://sodipodi.sourceforge.net/DTD/sodipodi-0.dtd"
   xmlns:inkscape="http://www.inkscape.org/namespaces/inkscape"
   width="210mm"
   height="297mm"
   viewBox="0 0 210 297"
   version="1.1"
   id="svg8"
   inkscape:version="0.92.4 5da689c313, 2019-01-14"
   sodipodi:docname="posadas.svg">
  <defs
     id="defs2" />
  <sodipodi:namedview
     id="base"
     pagecolor="#ffffff"
     bordercolor="#666666"
     borderopacity="1.0"
     inkscape:pageopacity="0.0"
     inkscape:pageshadow="2"
     inkscape:zoom="0.98994949"
     inkscape:cx="383.0079"
     inkscape:cy="720.42944"
     inkscape:document-units="mm"
     inkscape:current-layer="layer1"
     showgrid="false"
     showguides="true"
     inkscape:guide-bbox="true"
     inkscape:window-width="1920"
     inkscape:window-height="1052"
     inkscape:window-x="0"
     inkscape:window-y="0"
     inkscape:window-maximized="1" />
  <metadata
     id="metadata5">
    <rdf:RDF>
      <cc:Work
         rdf:about="">
        <dc:format>image/svg+xml</dc:format>
        <dc:type
           rdf:resource="http://purl.org/dc/dcmitype/StillImage" />
        <dc:title></dc:title>
      </cc:Work>
    </rdf:RDF>
  </metadata>
  <g
     inkscape:label="Layer 1"
     inkscape:groupmode="layer"
     id="layer1">
    <rect
       style="opacity:1;fill:#ff0000;fill-opacity:1;stroke:none;stroke-width:0.56718981;stroke-linecap:round;stroke-linejoin:miter;stroke-miterlimit:4;stroke-dasharray:none;stroke-opacity:1"
       id="rect866"
       width="105.04827"
       height="105.04827"
       x="-0.012316545"
       y="45.516987"
       inkscape:export-filename="/home/g/posada_black.png"
       inkscape:export-xdpi="1300.3658"
       inkscape:export-ydpi="1300.3658" />
    <path
       style="opacity:1;fill:#ffffff;fill-opacity:1;stroke:none;stroke-width:0.55602753;stroke-linecap:round;stroke-linejoin:miter;stroke-miterlimit:4;stroke-dasharray:none;stroke-opacity:1"
       id="path864"
       sodipodi:type="arc"
       sodipodi:cx="52.421131"
       sodipodi:cy="99.076736"
       sodipodi:rx="10.922778"
       sodipodi:ry="10.922778"
       sodipodi:start="5.4414654"
       sodipodi:end="5.433751"
       sodipodi:open="true"
       d="m 59.69768,90.930638 a 10.922778,10.922778 0 0 1 0.883568,15.406922 10.922778,10.922778 0 0 1 -15.40519,0.91328 10.922778,10.922778 0 0 1 -0.94299,-15.403399 10.922778,10.922778 0 0 1 15.401554,-0.972694" />
    <path
       style="fill:#ffffff;fill-opacity:1;stroke:none;stroke-width:0.55835193;stroke-linecap:butt;stroke-linejoin:miter;stroke-miterlimit:4;stroke-dasharray:none;stroke-opacity:1"
       d="m 52.847921,63.859426 c 2.946232,-1.210185 20.548422,-2.382296 29.969896,17.669309 0,0 10.948589,4.167204 12.259066,14.358137 0,0 -1.560167,0.0039 -3.232157,-1.479458 0,0 -3.582112,-3.134287 -5.389933,2.371197 -0.966931,3.310359 1.892422,12.972589 -14.686476,29.658599 0,0 -1.323004,0.97248 -0.53709,3.0407 0.78592,2.06821 0.766981,6.32188 0.239555,9.3986 -0.527424,3.07673 -0.310505,3.59796 -0.310505,3.59796 0,0 -1.94805,-1.21609 -5.371557,-8.37111 0,0 -0.361059,-0.48262 -0.605723,-2.11649 0,0 -1.148948,0.82928 -3.166732,0.57815 -2.017783,-0.25112 -1.324382,-0.18586 -1.324382,-0.18586 0,0 -0.883838,0.44925 -1.394819,0.19993 0,0 1.183751,-3.87056 6.960174,-5.59216 1.145275,-0.37446 1.839966,-0.2323 2.510808,-2.44945 0,0 6.96362,-14.61829 2.923543,-28.065237 -0.87869,-3.279312 -2.006393,-7.325728 -4.86846,-11.698125 0,0 -0.923247,1.397007 -0.322583,4.199308 0.60067,2.802301 1.23125,6.029286 1.23125,6.029286 0,0 -4.572964,-3.723566 -5.026792,-5.417281 0,0 -1.405702,-2.867735 -1.717457,-6.33758 -0.311761,-3.469838 -0.345386,-3.451173 -0.345386,-3.451173 0,0 0.06405,-1.706949 -1.933226,-2.890538 -1.99727,-1.183583 -3.752043,-3.552237 -4.865222,-5.976928 -0.981828,-2.138584 -1.96814,-2.948772 -2.923194,-3.774324 -0.454682,-0.399593 -2.165567,-1.235055 -2.165567,-1.235055 0,0 -2.046146,-0.861503 -1.220595,-1.816559 0.825562,-0.955058 5.313564,-0.243848 5.313564,-0.243848 z"
       id="path860"
       inkscape:connector-curvature="0"
       sodipodi:nodetypes="cccccccscccccccccccccccsscccc" />
    <path
       sodipodi:nodetypes="cccccccscccccccccccccccsscccc"
       inkscape:connector-curvature="0"
       id="path862"
       d="m 51.367619,132.30045 c -2.946227,1.21018 -20.548406,2.38229 -29.969881,-17.66931 0,0 -10.94859,-4.1672 -12.2590626,-14.35814 0,0 1.5601636,-0.004 3.2321576,1.47946 0,0 3.582108,3.13428 5.389931,-2.371197 0.966927,-3.31036 -1.892425,-12.972593 14.686475,-29.658611 0,0 1.323001,-0.972471 0.537087,-3.040685 -0.785921,-2.068208 -0.766985,-6.321885 -0.23956,-9.398608 0.527423,-3.076723 0.310509,-3.59796 0.310509,-3.59796 0,0 1.948045,1.216093 5.371552,8.371115 0,0 0.361066,0.482607 0.605726,2.116491 0,0 1.148955,-0.82928 3.166735,-0.578155 2.017785,0.251119 1.32439,0.185862 1.32439,0.185862 0,0 0.883832,-0.449257 1.394813,-0.199932 0,0 -1.183751,3.870564 -6.96018,5.592161 -1.145275,0.374467 -1.839968,0.232301 -2.51081,2.449454 0,0 -6.963614,14.618284 -2.923533,28.065238 0.878689,3.279307 2.006392,7.325727 4.868459,11.698127 0,0 0.923246,-1.39701 0.322583,-4.19931 -0.600669,-2.80231 -1.231248,-6.02928 -1.231248,-6.02928 0,0 4.572961,3.72357 5.026791,5.41727 0,0 1.4057,2.86774 1.717455,6.33758 0.311762,3.46984 0.345385,3.45117 0.345385,3.45117 0,0 -0.06404,1.70695 1.933225,2.89054 1.99727,1.18358 3.752029,3.55225 4.865209,5.97693 0.981828,2.13859 1.968139,2.94877 2.9232,3.77432 0.454677,0.3996 2.16556,1.23506 2.16556,1.23506 0,0 2.046161,0.86151 1.220598,1.81657 -0.825557,0.95504 -5.313566,0.24384 -5.313566,0.24384 z"
       style="fill:#ffffff;fill-opacity:1;stroke:none;stroke-width:0.55835193;stroke-linecap:butt;stroke-linejoin:miter;stroke-miterlimit:4;stroke-dasharray:none;stroke-opacity:1" />
    <g
       id="g900"
       transform="matrix(0.46974451,0,0,0.46974451,-0.16724906,31.032019)">
      <path
         sodipodi:nodetypes="csccc"
         inkscape:connector-curvature="0"
         id="path894"
         d="m 124.41525,146.79533 c 0,0 -11.25653,4.91191 -15.86146,-2.14898 -4.60494,-7.06092 5.01426,-19.03375 9.10753,-20.87571 0,0 -14.3949,5.8757 -12.94772,19.98583 0.43415,4.34158 4.92045,11.64988 18.37935,7.38067 l 3.69033,5.42697 c 0,0 4.26921,-1.30246 2.02606,-4.26922 -2.24315,-2.96673 -4.39409,-5.49956 -4.39409,-5.49956 z"
         style="fill:#ff0000;fill-opacity:1;stroke:none;stroke-width:0.57305884px;stroke-linecap:butt;stroke-linejoin:miter;stroke-opacity:1" />
      <path
         inkscape:connector-curvature="0"
         id="path896"
         d="m 107.3258,154.87952 13.61016,-23.02467 c 0,0 1.17681,-1.02332 -0.61401,-2.14897 -1.7908,-1.12564 -3.68395,-2.04664 -3.68395,-2.04664 0,0 -0.92098,-0.66515 -0.51164,-1.17682 0.40933,-0.51165 1.43263,-0.0511 1.43263,-0.0511 0,0 3.58162,1.43263 5.11661,-0.0511 l 8.13539,4.50252 c 0,0 -0.7675,2.81413 -2.14897,3.53045 l -4.40027,-2.30247 c 0,0 -0.46051,0.10223 -1.228,1.73964 -0.76748,1.63731 -12.68916,22.92235 -12.68916,22.92235 z"
         style="fill:#ff0000;fill-opacity:1;stroke:none;stroke-width:0.57305884px;stroke-linecap:butt;stroke-linejoin:miter;stroke-opacity:1" />
    </g>
    <path
       style="opacity:1;fill:#000000;fill-opacity:1;stroke:none;stroke-width:0.59531558;stroke-linecap:round;stroke-linejoin:miter;stroke-miterlimit:4;stroke-dasharray:none;stroke-opacity:1"
       d="m 35.101206,83.240481 c -1.985159,0.247752 -1.08242,3.40679 2.395844,8.384001 5.635201,8.0636 16.230912,18.410998 23.682581,23.127558 7.451178,4.71615 8.944987,2.02109 3.338894,-6.02388 l -0.07861,-0.11276 c -0.792396,-1.12691 -1.700461,-2.32421 -2.706287,-3.56828 -0.07119,0.10554 -0.143524,0.21034 -0.218349,0.31331 3.263076,4.9192 2.118722,6.41664 -2.615974,3.42313 -4.960353,-3.13973 -12.013473,-10.027602 -15.764547,-15.395189 -2.315594,-3.313462 -2.91645,-5.416416 -1.594619,-5.581074 0.741156,-0.09236 2.044723,0.432259 3.75668,1.511866 0.347813,0.220482 0.710485,0.462517 1.086195,0.724886 0.08912,-0.06291 0.179448,-0.123474 0.270153,-0.183513 -2.138157,-1.75739 -4.14541,-3.234907 -5.908315,-4.349048 -2.571986,-1.621934 -4.53035,-2.40998 -5.643651,-2.271007 z"
       id="path872"
       inkscape:connector-curvature="0"
       sodipodi:nodetypes="ccccccccccccccc" />
    <rect
       y="45.516987"
       x="105.03591"
       height="105.04827"
       width="105.04827"
       id="rect910"
       style="opacity:1;fill:#000000;fill-opacity:1;stroke:none;stroke-width:0.56718981;stroke-linecap:round;stroke-linejoin:miter;stroke-miterlimit:4;stroke-dasharray:none;stroke-opacity:1"
       inkscape:export-filename="/home/g/posada_b.png"
       inkscape:export-xdpi="1300.3658"
       inkscape:export-ydpi="1300.3658" />
    <path
       d="m 164.746,90.930638 a 10.922778,10.922778 0 0 1 0.88357,15.406922 10.922778,10.922778 0 0 1 -15.40519,0.91328 10.922778,10.922778 0 0 1 -0.94299,-15.403399 10.922778,10.922778 0 0 1 15.40155,-0.972694"
       sodipodi:open="true"
       sodipodi:end="5.433751"
       sodipodi:start="5.4414654"
       sodipodi:ry="10.922778"
       sodipodi:rx="10.922778"
       sodipodi:cy="99.076736"
       sodipodi:cx="157.46945"
       sodipodi:type="arc"
       id="path912"
       style="opacity:1;fill:#ffffff;fill-opacity:1;stroke:none;stroke-width:0.55602753;stroke-linecap:round;stroke-linejoin:miter;stroke-miterlimit:4;stroke-dasharray:none;stroke-opacity:1" />
    <path
       sodipodi:nodetypes="cccccccscccccccccccccccsscccc"
       inkscape:connector-curvature="0"
       id="path914"
       d="m 157.8962,63.859427 c 2.94623,-1.210186 20.54841,-2.382297 29.96988,17.669308 0,0 10.9486,4.16721 12.25907,14.358137 0,0 -1.56017,0.0039 -3.23215,-1.479458 0,0 -3.58212,-3.134287 -5.38994,2.371202 -0.96693,3.310354 1.89242,12.972584 -14.68647,29.658604 0,0 -1.32301,0.97247 -0.5371,3.04069 0.78592,2.06821 0.76698,6.32188 0.23956,9.3986 -0.52742,3.07673 -0.31051,3.59796 -0.31051,3.59796 0,0 -1.94804,-1.21609 -5.37155,-8.37111 0,0 -0.36106,-0.48262 -0.60572,-2.11649 0,0 -1.14895,0.82928 -3.16674,0.57815 -2.01778,-0.25112 -1.32438,-0.18586 -1.32438,-0.18586 0,0 -0.88383,0.44925 -1.39482,0.19993 0,0 1.18375,-3.87056 6.96018,-5.59216 1.14527,-0.37446 1.83997,-0.2323 2.51081,-2.44945 0,0 6.96362,-14.61829 2.92353,-28.065237 -0.87868,-3.279312 -2.00639,-7.325728 -4.86845,-11.698125 0,0 -0.92325,1.397007 -0.32259,4.199314 0.60068,2.802301 1.23125,6.02928 1.23125,6.02928 0,0 -4.57296,-3.723566 -5.02678,-5.417281 0,0 -1.40571,-2.86773 -1.71746,-6.337574 -0.31176,-3.469844 -0.34539,-3.451179 -0.34539,-3.451179 0,0 0.0641,-1.706943 -1.93323,-2.890538 -1.99727,-1.183582 -3.75203,-3.552236 -4.86521,-5.976927 -0.98183,-2.138584 -1.96815,-2.948773 -2.9232,-3.774325 -0.45468,-0.399592 -2.16556,-1.235055 -2.16556,-1.235055 0,0 -2.04616,-0.861503 -1.2206,-1.816559 0.82556,-0.955057 5.31357,-0.243847 5.31357,-0.243847 z"
       style="fill:#ffffff;fill-opacity:1;stroke:none;stroke-width:0.55835193;stroke-linecap:butt;stroke-linejoin:miter;stroke-miterlimit:4;stroke-dasharray:none;stroke-opacity:1" />
    <path
       style="fill:#ffffff;fill-opacity:1;stroke:none;stroke-width:0.55835193;stroke-linecap:butt;stroke-linejoin:miter;stroke-miterlimit:4;stroke-dasharray:none;stroke-opacity:1"
       d="m 156.41589,132.30045 c -2.94622,1.21018 -20.54841,2.38229 -29.96988,-17.66931 0,0 -10.94859,-4.16721 -12.25906,-14.35814 0,0 1.56017,-0.004 3.23215,1.47946 0,0 3.58212,3.13428 5.38994,-2.371197 0.96693,-3.31036 -1.89244,-12.972593 14.68647,-29.65861 0,0 1.32299,-0.972472 0.53709,-3.040686 -0.78592,-2.068207 -0.76698,-6.321885 -0.23956,-9.398607 0.52742,-3.076723 0.3105,-3.597961 0.3105,-3.597961 0,0 1.94805,1.216093 5.37156,8.371116 0,0 0.36107,0.482607 0.60572,2.11649 0,0 1.14895,-0.829279 3.16673,-0.578154 2.01779,0.251118 1.32439,0.185861 1.32439,0.185861 0,0 0.88384,-0.449256 1.39482,-0.199932 0,0 -1.18375,3.870564 -6.96018,5.592162 -1.14528,0.374467 -1.83996,0.2323 -2.51081,2.449453 0,0 -6.96361,14.618284 -2.92352,28.065238 0.87867,3.279307 2.00638,7.325727 4.86845,11.698127 0,0 0.92325,-1.39701 0.32258,-4.19931 -0.60067,-2.80231 -1.23124,-6.02928 -1.23124,-6.02928 0,0 4.57295,3.72357 5.02678,5.41727 0,0 1.4057,2.86774 1.71746,6.33758 0.31176,3.46984 0.34538,3.45117 0.34538,3.45117 0,0 -0.0641,1.70695 1.93322,2.89054 1.99728,1.18358 3.75204,3.55225 4.86522,5.97693 0.98183,2.13859 1.96813,2.94877 2.9232,3.77432 0.45468,0.3996 2.16556,1.23506 2.16556,1.23506 0,0 2.04616,0.86151 1.2206,1.81657 -0.82555,0.95504 -5.31357,0.24384 -5.31357,0.24384 z"
       id="path916"
       inkscape:connector-curvature="0"
       sodipodi:nodetypes="cccccccscccccccccccccccsscccc" />
    <path
       style="opacity:1;fill:#ffffff;fill-opacity:1;stroke:none;stroke-width:0.11542334;stroke-linecap:round;stroke-linejoin:miter;stroke-miterlimit:4;stroke-dasharray:none;stroke-opacity:1"
       id="path924"
       sodipodi:type="arc"
       sodipodi:cx="120.45879"
       sodipodi:cy="112.51683"
       sodipodi:rx="2.2674122"
       sodipodi:ry="2.2674122"
       sodipodi:start="5.4414654"
       sodipodi:end="5.433751"
       sodipodi:open="true"
       d="m 121.9693,110.82582 a 2.2674122,2.2674122 0 0 1 0.18342,3.19825 2.2674122,2.2674122 0 0 1 -3.1979,0.18959 2.2674122,2.2674122 0 0 1 -0.19575,-3.19753 2.2674122,2.2674122 0 0 1 3.19714,-0.20192"
       transform="rotate(-15)" />
    <path
       d="m 131.47076,159.15375 a 1.2974143,1.2974143 0 0 1 0.10495,1.83005 1.2974143,1.2974143 0 0 1 -1.82984,0.10848 1.2974143,1.2974143 0 0 1 -0.11201,-1.82963 1.2974143,1.2974143 0 0 1 1.82941,-0.11553"
       sodipodi:open="true"
       sodipodi:end="5.433751"
       sodipodi:start="5.4414654"
       sodipodi:ry="1.2974143"
       sodipodi:rx="1.2974143"
       sodipodi:cy="160.12135"
       sodipodi:cx="130.60645"
       sodipodi:type="arc"
       id="path926"
       style="opacity:1;fill:#ff0000;fill-opacity:1;stroke:none;stroke-width:0.06604528;stroke-linecap:round;stroke-linejoin:miter;stroke-miterlimit:4;stroke-dasharray:none;stroke-opacity:1"
       transform="rotate(-15)" />
    <path
       style="opacity:1;fill:#ffffff;fill-opacity:1;stroke:none;stroke-width:0.03186048;stroke-linecap:round;stroke-linejoin:miter;stroke-miterlimit:4;stroke-dasharray:none;stroke-opacity:1"
       id="path928"
       sodipodi:type="arc"
       sodipodi:cx="126.87569"
       sodipodi:cy="160.71828"
       sodipodi:rx="0.62587726"
       sodipodi:ry="0.62587726"
       sodipodi:start="5.4414654"
       sodipodi:end="5.433751"
       sodipodi:open="true"
       d="m 127.29263,160.2515 a 0.62587726,0.62587726 0 0 1 0.0506,0.88282 0.62587726,0.62587726 0 0 1 -0.88272,0.0523 0.62587726,0.62587726 0 0 1 -0.054,-0.88261 0.62587726,0.62587726 0 0 1 0.88251,-0.0557"
       transform="rotate(-15)" />
    <g
       id="g974"
       transform="matrix(0.24027748,0.06438216,-0.06438216,0.24027748,59.401063,19.141496)"
       style="fill:#000000;fill-opacity:0.99183003">
      <path
         inkscape:connector-curvature="0"
         id="path962"
         d="m 468.90834,166.62446 a 29.302376,29.302376 0 0 0 -20.57448,9.87536 29.302376,29.302376 0 0 0 2.52958,41.32254 29.302376,29.302376 0 0 0 41.3277,-2.44998 29.302376,29.302376 0 0 0 -2.3704,-41.33236 l -0.16949,-0.14986 a 29.302376,29.302376 0 0 0 -20.74291,-7.2657 z m 0.30538,6.41821 a 22.876781,22.876781 0 0 1 16.19438,5.67252 l 0.13176,0.11731 a 22.876781,22.876781 0 0 1 1.85055,32.26831 22.876781,22.876781 0 0 1 -32.2647,1.91254 22.876781,22.876781 0 0 1 -1.97508,-32.26056 22.876781,22.876781 0 0 1 16.06309,-7.71012 z"
         style="opacity:1;fill:#000000;fill-opacity:0.99183003;stroke:none;stroke-width:0.74582338;stroke-linecap:round;stroke-linejoin:miter;stroke-miterlimit:4;stroke-dasharray:none;stroke-opacity:1" />
      <path
         sodipodi:nodetypes="ccccccccc"
         inkscape:connector-curvature="0"
         id="path967"
         d="m 450.26413,207.89211 16.91444,-36.38021 6.42559,0.85045 17.19792,36.66369 -4.05178,6.15357 -16.48109,-35.2692 -16.60328,35.63572 -3.77979,-5.85863 z"
         style="opacity:1;fill:#000000;fill-opacity:0.99183003;stroke:none;stroke-width:0.26458332px;stroke-linecap:butt;stroke-linejoin:miter;stroke-opacity:1" />
      <path
         inkscape:connector-curvature="0"
         id="path969"
         d="m 461.7081,195.73826 h 18.10752 c 0,0 4.23665,6.07046 3.50478,6.07046 -0.73186,0 -25.35407,0 -25.35407,0 z"
         style="fill:#000000;fill-opacity:0.99183003;stroke:none;stroke-width:0.26458332px;stroke-linecap:butt;stroke-linejoin:miter;stroke-opacity:1" />
    </g>
    <path
       sodipodi:nodetypes="ccccccccccccccc"
       inkscape:connector-curvature="0"
       id="path930"
       d="m 140.49476,83.195305 c -1.98516,0.247751 -1.08243,3.406798 2.39583,8.384002 5.63521,8.063596 16.23091,18.410993 23.68259,23.127553 7.45118,4.71615 8.94499,2.02109 3.33889,-6.02388 l -0.0786,-0.11276 c -0.79241,-1.12691 -1.70047,-2.32422 -2.70629,-3.56828 -0.0712,0.10553 -0.14353,0.21032 -0.21836,0.31331 3.26308,4.91918 2.11873,6.41663 -2.61597,3.42311 -4.96035,-3.13973 -12.01347,-10.027593 -15.76455,-15.395174 -2.31559,-3.313462 -2.91645,-5.416421 -1.59462,-5.581071 0.74114,-0.09237 2.04473,0.43226 3.75666,1.511863 0.34782,0.220483 0.7105,0.462523 1.08621,0.724884 0.0891,-0.0629 0.17944,-0.123471 0.27016,-0.183507 -2.13817,-1.757395 -4.14543,-3.23491 -5.90833,-4.349047 -2.57199,-1.621935 -4.53035,-2.409981 -5.64365,-2.271014 z"
       style="opacity:1;fill:#f90000;fill-opacity:1;stroke:none;stroke-width:0.59531558;stroke-linecap:round;stroke-linejoin:miter;stroke-miterlimit:4;stroke-dasharray:none;stroke-opacity:1" />
    <path
       transform="rotate(-15)"
       d="m 19.74212,83.434109 a 2.2674122,2.2674122 0 0 1 0.183416,3.198256 2.2674122,2.2674122 0 0 1 -3.197896,0.189584 2.2674122,2.2674122 0 0 1 -0.195751,-3.197525 2.2674122,2.2674122 0 0 1 3.197141,-0.201917"
       sodipodi:open="true"
       sodipodi:end="5.433751"
       sodipodi:start="5.4414654"
       sodipodi:ry="2.2674122"
       sodipodi:rx="2.2674122"
       sodipodi:cy="85.125122"
       sodipodi:cx="18.231613"
       sodipodi:type="arc"
       id="path982"
       style="opacity:1;fill:#ffffff;fill-opacity:1;stroke:none;stroke-width:0.11542334;stroke-linecap:round;stroke-linejoin:miter;stroke-miterlimit:4;stroke-dasharray:none;stroke-opacity:1" />
    <path
       transform="rotate(-15)"
       style="opacity:1;fill:#000000;fill-opacity:1;stroke:none;stroke-width:0.06604528;stroke-linecap:round;stroke-linejoin:miter;stroke-miterlimit:4;stroke-dasharray:none;stroke-opacity:1"
       id="path984"
       sodipodi:type="arc"
       sodipodi:cx="26.334728"
       sodipodi:cy="132.18188"
       sodipodi:rx="1.2974143"
       sodipodi:ry="1.2974143"
       sodipodi:start="5.4414654"
       sodipodi:end="5.433751"
       sodipodi:open="true"
       d="m 27.199041,131.21429 a 1.2974143,1.2974143 0 0 1 0.104951,1.83004 1.2974143,1.2974143 0 0 1 -1.829838,0.10848 1.2974143,1.2974143 0 0 1 -0.112009,-1.82963 1.2974143,1.2974143 0 0 1 1.829406,-0.11553" />
    <path
       transform="rotate(-15)"
       d="m 23.020919,132.31204 a 0.62587726,0.62587726 0 0 1 0.05063,0.88282 0.62587726,0.62587726 0 0 1 -0.882721,0.0523 0.62587726,0.62587726 0 0 1 -0.05403,-0.88262 0.62587726,0.62587726 0 0 1 0.882512,-0.0557"
       sodipodi:open="true"
       sodipodi:end="5.433751"
       sodipodi:start="5.4414654"
       sodipodi:ry="0.62587726"
       sodipodi:rx="0.62587726"
       sodipodi:cy="132.77881"
       sodipodi:cx="22.603971"
       sodipodi:type="arc"
       id="path986"
       style="opacity:1;fill:#ffffff;fill-opacity:1;stroke:none;stroke-width:0.03186048;stroke-linecap:round;stroke-linejoin:miter;stroke-miterlimit:4;stroke-dasharray:none;stroke-opacity:1" />
  </g>
</svg>
